<?xml version="1.0" encoding="UTF-8" standalone="no" ?>
<!DOCTYPE svg PUBLIC "-//W3C//DTD SVG 1.1//EN" "http://www.w3.org/Graphics/SVG/1.1/DTD/svg11.dtd">
<svg xmlns="http://www.w3.org/2000/svg" xmlns:xlink="http://www.w3.org/1999/xlink" version="1.1" width="1080" height="1080" viewBox="0 0 1080 1080" xml:space="preserve">
<desc>Created with Fabric.js 5.2.4</desc>
<defs>
</defs>
<g transform="matrix(1 0 0 1 540 540)" id="b7e54a2e-4cf8-4055-8330-e5691c18d022"  >
<rect style="stroke: none; stroke-width: 1; stroke-dasharray: none; stroke-linecap: butt; stroke-dashoffset: 0; stroke-linejoin: miter; stroke-miterlimit: 4; fill: rgb(255,255,255); fill-rule: nonzero; opacity: 1; visibility: hidden;" vector-effect="non-scaling-stroke"  x="-540" y="-540" rx="0" ry="0" width="1080" height="1080" />
</g>
<g transform="matrix(1 0 0 1 540 540)" id="51ee2174-e97b-4c2f-9513-ff353d6aa98c"  >
</g>
<g transform="matrix(NaN NaN NaN NaN 0 0)"  >
<g style=""   >
</g>
</g>
<g transform="matrix(1 0 0 1 540 540)" id="rect6094-5-9"  >
<path style="stroke: rgb(0,0,0); stroke-width: 0; stroke-dasharray: none; stroke-linecap: butt; stroke-dashoffset: 0; stroke-linejoin: miter; stroke-miterlimit: 4; fill: rgb(241,145,1); fill-rule: nonzero; opacity: 1;" vector-effect="non-scaling-stroke"  transform=" translate(-35.41, -121.28)" d="M 35.412312 115.5918 C 33.970266 115.5918 32.531573 116.08348000000001 31.359911 117.06660000000001 C 30.654729 117.65833 30.109711 118.37831000000001 29.731198 119.16672000000001 C 29.678668 119.16172000000002 29.627546 119.15032000000001 29.57361 119.15032000000001 C 28.631740999999998 119.15032000000001 27.873369999999998 119.90868 27.873369999999998 120.85053 L 27.873369999999998 122.95187 C 27.873369999999998 123.89371 28.631740999999998 124.65208 29.57361 124.65208 C 29.62755 124.65208 29.678669 124.64038 29.731198 124.63568 C 29.798968 124.77614999999999 29.869087 124.91559 29.948116 125.05256999999999 C 30.257054 125.60395999999999 31.08242 125.13186999999999 30.763703999999997 124.58601999999999 C 29.458748999999997 122.32573 29.964132999999997 119.46154999999999 31.963411999999998 117.78393999999999 C 33.962738 116.10628999999999 36.866763999999996 116.10628999999999 38.866067 117.78393999999999 C 40.865393 119.46154999999999 41.370777000000004 122.32567999999999 40.065799 124.58601999999999 L 40.051729 124.60941999999999 L 40.042329 124.63281999999998 C 40.042329 124.63281999999998 39.40853 126.03492999999997 38.163985000000004 126.03492999999997 L 36.588598000000005 126.02082999999998 C 36.440859 125.80507999999998 36.204407 125.65482999999998 35.92208600000001 125.65482999999998 L 34.90655300000001 125.65482999999998 C 34.45121300000001 125.65482999999998 34.08491500000001 126.02234999999997 34.08491500000001 126.47768999999998 C 34.08491500000001 126.75855999999997 34.26314000000001 126.97183999999999 34.67097100000001 126.97183999999999 L 38.16398000000001 126.97211999999999 C 40.03158400000001 126.97211999999999 40.83931600000001 125.13861999999999 40.87608700000001 125.05376999999999 L 40.87608700000001 125.04876999999999 C 40.95440700000001 124.91299 41.023356000000014 124.77355999999999 41.09065900000001 124.63432999999999 C 41.14553900000001 124.63932999999999 41.19900100000001 124.65073 41.25551700000001 124.65073 C 42.19738600000001 124.65073 42.95575400000001 123.89237 42.95575400000001 122.95052 L 42.95575400000001 120.84918 C 42.95575400000001 119.90734 42.197384000000014 119.14897 41.25551700000001 119.14897 C 41.201107000000015 119.14897 41.14975500000001 119.15797 41.09675600000001 119.16537000000001 C 40.71912900000002 118.37691000000001 40.175733000000015 117.65700000000001 39.47045600000001 117.06523000000001 C 38.298842000000015 116.08211000000001 36.854101000000014 115.59042000000001 35.412005000000015 115.59042000000001 z M 33.363107 118.57898 C 32.997088 118.55508 32.662753 118.63248 32.370605 118.94012000000001 C 31.591555999999997 119.7603 31.110279999999996 120.87662 31.110279999999996 122.06545000000001 C 31.110279999999996 123.04606000000001 31.438001999999997 124.14486000000001 31.990072999999995 124.18496000000002 C 32.77658399999999 124.24216000000001 34.01772999999999 123.72568000000001 35.41474899999999 123.72568000000001 C 36.895185999999995 123.72568000000001 38.20159199999999 124.30519000000001 38.97635499999999 124.168 C 39.44588299999999 124.08500000000001 39.72041899999999 122.96264000000001 39.72041899999999 122.06545000000001 C 39.72041899999999 120.87662000000002 39.23796699999999 119.76030000000002 38.45889499999999 118.94012000000001 C 37.67984099999999 118.11991 36.60355299999999 118.94012000000001 35.41474899999999 118.94012000000001 C 34.67174299999999 118.94012000000001 33.973102999999995 118.61903000000001 33.36310699999999 118.57898 z M 33.188634 120.60032 C 33.622939 120.60049 33.974979 120.95250999999999 33.975120000000004 121.38683 C 33.974979000000005 121.82114 33.622939 122.17316000000001 33.18863400000001 122.17332 C 32.75433000000001 122.17316000000001 32.40228900000001 121.82114 32.40214900000001 121.38683 C 32.40228900000001 120.95251 32.75433000000001 120.60049000000001 33.18863400000001 120.60032 z M 37.640938 120.60032 C 38.075267 120.60049 38.427282999999996 120.95250999999999 38.427447 121.38683 C 38.427281 121.82114 38.075267000000004 122.17316000000001 37.640938 122.17332 C 37.206634 122.17316000000001 36.854617 121.82114 36.854453 121.38683 C 36.854617 120.95251 37.206634 120.60049000000001 37.640938 120.60032 z" stroke-linecap="round" />
</g>
</svg>